<svg width="400" height="400" viewBox="0 0 400 400" fill="none" xmlns="http://www.w3.org/2000/svg">
<rect width="400" height="400" rx="200" fill="url(#paint0_linear_59_37)"/>
<path fill-rule="evenodd" clip-rule="evenodd" d="M95.6485 68.7554C95.2917 69.1112 95 87.0487 95 108.617V147.829H99.7163H104.433L105.027 139.808C106.28 122.921 112.395 108.537 123.244 96.9605C134.966 84.4529 147.237 78.99 165.642 78.0829L176.667 77.5404L176.669 94.9412C176.67 104.513 176.958 124.484 177.311 139.322L177.952 166.301H182.17H186.389V117.204V68.1069H141.343C116.567 68.1069 96.0043 68.3986 95.6485 68.7554ZM195.139 84.0951V100.19H199.514H203.889V94.843V89.4958H208.75H213.611V98.7319V107.968H210.351C208.557 107.968 204.401 108.249 201.115 108.592L195.139 109.217V137.812V166.408L199.757 166.112L204.375 165.815V141.826V117.836L207.17 117.277C208.707 116.97 212.745 116.718 216.143 116.718H222.32L222.584 97.5167L222.847 78.3153L233.542 78.4057C252.097 78.5622 262.894 83.0957 275.888 96.1857C282.201 102.545 285.074 106.344 287.805 111.944C291.785 120.104 294.808 131.233 295.774 141.267L296.405 147.829H300.703H305V107.958V68.0875L259.062 68.3403L213.125 68.593L213.244 74.6694L213.362 80.7458H209.158H204.953L204.665 74.6694L204.375 68.593L199.757 68.2965L195.139 68V84.0951ZM213.611 145.885V166.301H217.986H222.361V145.885V125.468H217.986H213.611V145.885ZM177.343 241.782C176.971 242.154 176.667 252.794 176.667 265.426C176.667 283.046 176.316 289.741 175.158 294.187C172.152 305.731 164.527 315.257 154.41 320.112C148.957 322.728 146.516 323.276 138.264 323.741L128.542 324.287L128.243 328.419L127.944 332.551H157.167H186.389V291.718V250.885H190.764H195.139V291.718V332.551H199.514H203.889L203.886 287.1L203.883 241.649L190.952 241.376C183.84 241.227 177.717 241.409 177.343 241.782ZM213.611 286.857V332.551H242.833H272.056L271.757 328.507L271.458 324.462L267.083 324.148C250.447 322.954 244.231 320.932 236.888 314.33C230.787 308.845 227.944 304.481 225.211 296.413C223.37 290.981 223.064 287.382 222.599 265.711L222.072 241.162H217.842H213.611V286.857Z" fill="#F7F8F7"/>
<defs>
<linearGradient id="paint0_linear_59_37" x1="200" y1="400" x2="200" y2="0" gradientUnits="userSpaceOnUse">
<stop stop-color="#ABC7A3"/>
<stop offset="1" stop-color="#90B389"/>
</linearGradient>
</defs>
</svg>
