<svg width="420" height="273" viewBox="0 0 420 273" fill="none" xmlns="http://www.w3.org/2000/svg">
<path d="M18.301 116.856C20.8183 116.856 22.7597 117.133 24.125 117.688C25.4903 118.2 26.6637 118.755 27.645 119.352C28.157 119.651 28.5623 119.885 28.861 120.056C29.2023 120.184 29.5223 120.248 29.821 120.248C30.2477 120.248 30.5463 120.013 30.717 119.544C30.9303 119.075 31.101 118.371 31.229 117.432H32.701C32.6583 118.243 32.5943 119.224 32.509 120.376C32.4663 121.485 32.4237 122.957 32.381 124.792C32.381 126.627 32.381 129.037 32.381 132.024H30.909C30.7383 129.805 30.2263 127.651 29.373 125.56C28.5197 123.469 27.3037 121.763 25.725 120.44C24.189 119.075 22.2903 118.392 20.029 118.392C17.981 118.392 16.2957 118.968 14.973 120.12C13.6503 121.272 12.989 122.872 12.989 124.92C12.989 126.627 13.4157 128.099 14.269 129.336C15.1223 130.531 16.3597 131.704 17.981 132.856C19.645 134.008 21.6503 135.395 23.997 137.016C26.045 138.339 27.8797 139.661 29.501 140.984C31.1223 142.307 32.4237 143.8 33.405 145.464C34.3863 147.128 34.877 149.112 34.877 151.416C34.877 154.232 34.1303 156.557 32.637 158.392C31.1863 160.227 29.2663 161.613 26.877 162.552C24.4877 163.448 21.8637 163.896 19.005 163.896C16.3597 163.896 14.2477 163.64 12.669 163.128C11.0903 162.616 9.76767 162.083 8.701 161.528C7.76233 160.931 7.037 160.632 6.525 160.632C6.09833 160.632 5.77833 160.867 5.565 161.336C5.39433 161.805 5.245 162.509 5.117 163.448H3.645C3.73033 162.424 3.773 161.229 3.773 159.864C3.81567 158.499 3.837 156.728 3.837 154.552C3.87967 152.333 3.901 149.539 3.901 146.168H5.373C5.54367 148.984 6.013 151.629 6.781 154.104C7.59167 156.536 8.80767 158.499 10.429 159.992C12.093 161.485 14.2903 162.232 17.021 162.232C18.5143 162.232 19.837 161.976 20.989 161.464C22.1837 160.909 23.1437 160.099 23.869 159.032C24.5943 157.965 24.957 156.643 24.957 155.064C24.957 153.272 24.5303 151.715 23.677 150.392C22.8663 149.069 21.7357 147.832 20.285 146.68C18.877 145.528 17.2343 144.355 15.357 143.16C13.3517 141.837 11.4743 140.515 9.725 139.192C7.97567 137.869 6.56767 136.355 5.501 134.648C4.477 132.941 3.965 130.915 3.965 128.568C3.965 125.88 4.62633 123.683 5.949 121.976C7.31433 120.227 9.085 118.947 11.261 118.136C13.4797 117.283 15.8263 116.856 18.301 116.856ZM68.908 116.792C73.4307 116.792 77.3773 117.709 80.748 119.544C84.1613 121.379 86.8067 124.024 88.684 127.48C90.5613 130.893 91.5 135.053 91.5 139.96C91.5 144.739 90.54 148.92 88.62 152.504C86.7 156.088 84.012 158.883 80.556 160.888C77.1427 162.893 73.2387 163.896 68.844 163.896C64.3213 163.896 60.3533 162.979 56.94 161.144C53.5693 159.309 50.9453 156.664 49.068 153.208C47.1907 149.752 46.252 145.592 46.252 140.728C46.252 135.949 47.212 131.768 49.132 128.184C51.0947 124.6 53.7613 121.805 57.132 119.8C60.5453 117.795 64.4707 116.792 68.908 116.792ZM68.652 117.944C66.2627 117.944 64.172 118.904 62.38 120.824C60.6307 122.744 59.2653 125.389 58.284 128.76C57.3453 132.131 56.876 136.035 56.876 140.472C56.876 144.995 57.4093 148.941 58.476 152.312C59.5853 155.64 61.0573 158.221 62.892 160.056C64.7693 161.848 66.8387 162.744 69.1 162.744C71.4893 162.744 73.5587 161.784 75.308 159.864C77.1 157.944 78.4653 155.299 79.404 151.928C80.3853 148.515 80.876 144.611 80.876 140.216C80.876 135.651 80.3213 131.704 79.212 128.376C78.1453 125.048 76.6733 122.488 74.796 120.696C72.9613 118.861 70.9133 117.944 68.652 117.944ZM122.086 117.688V118.968C120.635 119.011 119.526 119.181 118.758 119.48C118.033 119.736 117.542 120.248 117.286 121.016C117.03 121.741 116.902 122.893 116.902 124.472V156.984C116.902 158.307 116.987 159.288 117.158 159.928C117.371 160.568 117.755 160.995 118.31 161.208C118.907 161.421 119.782 161.528 120.934 161.528H124.07C125.521 161.528 126.886 161.187 128.166 160.504C129.446 159.821 130.598 158.861 131.622 157.624C132.646 156.344 133.499 154.829 134.182 153.08C134.865 151.331 135.377 149.389 135.718 147.256H137.19C137.062 148.707 136.998 150.584 136.998 152.888C136.998 153.869 137.019 155.299 137.062 157.176C137.105 159.053 137.233 160.995 137.446 163C135.27 162.915 132.817 162.872 130.086 162.872C127.355 162.829 124.923 162.808 122.79 162.808C121.723 162.808 120.358 162.808 118.694 162.808C117.03 162.808 115.238 162.829 113.318 162.872C111.398 162.872 109.457 162.893 107.494 162.936C105.531 162.936 103.675 162.957 101.926 163V161.72C103.291 161.635 104.315 161.464 104.998 161.208C105.681 160.952 106.129 160.44 106.342 159.672C106.598 158.904 106.726 157.752 106.726 156.216V124.472C106.726 122.893 106.598 121.741 106.342 121.016C106.129 120.248 105.659 119.736 104.934 119.48C104.251 119.181 103.249 119.011 101.926 118.968V117.688C102.993 117.731 104.422 117.773 106.214 117.816C108.049 117.859 109.99 117.88 112.038 117.88C113.915 117.88 115.75 117.859 117.542 117.816C119.377 117.773 120.891 117.731 122.086 117.688ZM187.444 117.688V118.968C186.079 119.139 185.033 119.501 184.308 120.056C183.625 120.568 183.177 121.4 182.964 122.552C182.751 123.704 182.644 125.325 182.644 127.416V144.376C182.644 147.149 182.452 149.688 182.068 151.992C181.684 154.296 181.001 156.28 180.02 157.944C178.911 159.779 177.289 161.229 175.156 162.296C173.023 163.363 170.313 163.896 167.028 163.896C165.065 163.896 163.06 163.661 161.012 163.192C158.964 162.765 157.129 161.933 155.508 160.696C154.143 159.544 153.097 158.243 152.372 156.792C151.647 155.341 151.156 153.635 150.9 151.672C150.644 149.667 150.516 147.299 150.516 144.568V124.472C150.516 122.893 150.388 121.741 150.132 121.016C149.919 120.248 149.471 119.736 148.788 119.48C148.105 119.181 147.081 119.011 145.716 118.968V117.688C146.783 117.731 148.212 117.773 150.004 117.816C151.839 117.859 153.737 117.88 155.7 117.88C157.663 117.88 159.54 117.859 161.332 117.816C163.167 117.773 164.681 117.731 165.876 117.688V118.968C164.425 119.011 163.316 119.181 162.548 119.48C161.823 119.736 161.332 120.248 161.076 121.016C160.82 121.741 160.692 122.893 160.692 124.472V148.6C160.692 150.733 160.82 152.632 161.076 154.296C161.375 155.917 161.844 157.283 162.484 158.392C163.167 159.459 164.084 160.269 165.236 160.824C166.388 161.379 167.817 161.656 169.524 161.656C172.511 161.656 174.836 160.952 176.5 159.544C178.207 158.136 179.401 156.195 180.084 153.72C180.809 151.203 181.172 148.323 181.172 145.08V128.184C181.172 125.837 181.023 124.045 180.724 122.808C180.425 121.528 179.828 120.611 178.932 120.056C178.079 119.501 176.756 119.139 174.964 118.968V117.688C175.775 117.731 176.841 117.773 178.164 117.816C179.487 117.859 180.724 117.88 181.876 117.88C182.9 117.88 183.903 117.859 184.884 117.816C185.908 117.773 186.761 117.731 187.444 117.688ZM235.713 117.688C235.542 119.864 235.414 121.955 235.329 123.96C235.286 125.965 235.265 127.501 235.265 128.568C235.265 129.507 235.286 130.403 235.329 131.256C235.372 132.109 235.414 132.835 235.457 133.432H233.985C233.302 129.848 232.428 127.011 231.361 124.92C230.337 122.829 229.1 121.357 227.649 120.504C226.198 119.608 224.492 119.16 222.529 119.16H221.057V155.704C221.057 157.411 221.228 158.691 221.569 159.544C221.953 160.397 222.636 160.973 223.617 161.272C224.598 161.528 226.028 161.677 227.905 161.72V163C226.582 162.957 224.812 162.915 222.593 162.872C220.417 162.829 218.134 162.808 215.745 162.808C213.398 162.808 211.18 162.829 209.089 162.872C206.998 162.915 205.313 162.957 204.033 163V161.72C205.953 161.677 207.404 161.528 208.385 161.272C209.366 160.973 210.028 160.397 210.369 159.544C210.71 158.691 210.881 157.411 210.881 155.704V119.16H209.473C207.51 119.16 205.804 119.608 204.353 120.504C202.902 121.357 201.665 122.829 200.641 124.92C199.617 126.968 198.721 129.805 197.953 133.432H196.481C196.566 132.835 196.609 132.109 196.609 131.256C196.652 130.403 196.673 129.507 196.673 128.568C196.673 127.501 196.63 125.965 196.545 123.96C196.502 121.955 196.396 119.864 196.225 117.688C198.188 117.731 200.321 117.773 202.625 117.816C204.972 117.859 207.318 117.88 209.665 117.88C212.012 117.88 214.124 117.88 216.001 117.88C217.921 117.88 220.033 117.88 222.337 117.88C224.684 117.88 227.03 117.859 229.377 117.816C231.724 117.773 233.836 117.731 235.713 117.688ZM265.327 117.688V118.968C263.962 119.011 262.916 119.181 262.191 119.48C261.508 119.736 261.06 120.248 260.847 121.016C260.634 121.741 260.527 122.893 260.527 124.472V156.216C260.527 157.752 260.634 158.904 260.847 159.672C261.103 160.44 261.572 160.952 262.255 161.208C262.938 161.464 263.962 161.635 265.327 161.72V163C264.175 162.915 262.724 162.872 260.975 162.872C259.226 162.829 257.455 162.808 255.663 162.808C253.572 162.808 251.631 162.829 249.839 162.872C248.09 162.872 246.66 162.915 245.551 163V161.72C246.916 161.635 247.94 161.464 248.623 161.208C249.306 160.952 249.754 160.44 249.967 159.672C250.223 158.904 250.351 157.752 250.351 156.216V124.472C250.351 122.893 250.223 121.741 249.967 121.016C249.754 120.248 249.284 119.736 248.559 119.48C247.876 119.181 246.874 119.011 245.551 118.968V117.688C246.66 117.731 248.09 117.773 249.839 117.816C251.631 117.859 253.572 117.88 255.663 117.88C257.455 117.88 259.226 117.859 260.975 117.816C262.724 117.773 264.175 117.731 265.327 117.688ZM298.346 116.792C302.868 116.792 306.815 117.709 310.186 119.544C313.599 121.379 316.244 124.024 318.122 127.48C319.999 130.893 320.938 135.053 320.938 139.96C320.938 144.739 319.978 148.92 318.058 152.504C316.138 156.088 313.45 158.883 309.994 160.888C306.58 162.893 302.676 163.896 298.282 163.896C293.759 163.896 289.791 162.979 286.378 161.144C283.007 159.309 280.383 156.664 278.506 153.208C276.628 149.752 275.69 145.592 275.69 140.728C275.69 135.949 276.65 131.768 278.57 128.184C280.532 124.6 283.199 121.805 286.57 119.8C289.983 117.795 293.908 116.792 298.346 116.792ZM298.09 117.944C295.7 117.944 293.61 118.904 291.818 120.824C290.068 122.744 288.703 125.389 287.722 128.76C286.783 132.131 286.314 136.035 286.314 140.472C286.314 144.995 286.847 148.941 287.914 152.312C289.023 155.64 290.495 158.221 292.33 160.056C294.207 161.848 296.276 162.744 298.538 162.744C300.927 162.744 302.996 161.784 304.746 159.864C306.538 157.944 307.903 155.299 308.842 151.928C309.823 148.515 310.314 144.611 310.314 140.216C310.314 135.651 309.759 131.704 308.65 128.376C307.583 125.048 306.111 122.488 304.234 120.696C302.399 118.861 300.351 117.944 298.09 117.944ZM373.54 117.688V118.968C372.174 119.139 371.15 119.501 370.468 120.056C369.785 120.568 369.316 121.4 369.06 122.552C368.846 123.704 368.74 125.325 368.74 127.416V163.128C368.228 163.085 367.694 163.064 367.14 163.064C366.628 163.064 366.073 163.085 365.476 163.128L337.7 127.928V152.504C337.7 154.851 337.828 156.664 338.084 157.944C338.34 159.181 338.894 160.077 339.748 160.632C340.644 161.144 342.03 161.507 343.908 161.72V163C343.097 162.915 342.03 162.872 340.708 162.872C339.385 162.829 338.148 162.808 336.996 162.808C336.014 162.808 335.012 162.829 333.988 162.872C332.964 162.872 332.11 162.915 331.428 163V161.72C332.793 161.507 333.817 161.144 334.5 160.632C335.182 160.12 335.63 159.288 335.844 158.136C336.1 156.941 336.228 155.32 336.228 153.272V124.472C336.228 122.893 336.1 121.741 335.844 121.016C335.63 120.248 335.161 119.736 334.436 119.48C333.753 119.181 332.75 119.011 331.428 118.968V117.688C332.11 117.731 332.964 117.773 333.988 117.816C335.012 117.859 336.014 117.88 336.996 117.88C338.02 117.88 339.001 117.859 339.94 117.816C340.878 117.773 341.732 117.731 342.5 117.688L367.268 148.216V128.184C367.268 125.837 367.14 124.045 366.884 122.808C366.628 121.528 366.052 120.611 365.156 120.056C364.302 119.501 362.937 119.139 361.06 118.968V117.688C361.87 117.731 362.937 117.773 364.26 117.816C365.582 117.859 366.82 117.88 367.972 117.88C368.996 117.88 369.998 117.859 370.98 117.816C372.004 117.773 372.857 117.731 373.54 117.688ZM417.023 117.688V118.968L395.135 161.528H401.791C403.242 161.528 404.692 161.293 406.143 160.824C407.636 160.355 409.002 159.587 410.239 158.52C411.519 157.453 412.607 156.045 413.503 154.296C414.399 152.504 414.996 150.285 415.295 147.64H416.767C416.639 149.091 416.575 150.968 416.575 153.272C416.575 154.253 416.596 155.64 416.639 157.432C416.682 159.224 416.81 161.08 417.023 163C415.444 162.915 413.716 162.872 411.839 162.872C409.962 162.829 408.084 162.808 406.207 162.808C404.372 162.808 402.666 162.808 401.087 162.808C398.314 162.808 395.412 162.829 392.383 162.872C389.354 162.872 386.516 162.915 383.871 163V161.72L405.823 119.16H398.911C397.29 119.16 395.775 119.373 394.367 119.8C393.002 120.227 391.743 120.952 390.591 121.976C389.439 122.957 388.479 124.301 387.711 126.008C386.943 127.672 386.41 129.763 386.111 132.28H384.639C384.724 131.683 384.767 130.957 384.767 130.104C384.81 129.251 384.831 128.355 384.831 127.416C384.831 126.435 384.788 125.048 384.703 123.256C384.66 121.464 384.554 119.608 384.383 117.688C385.791 117.731 387.348 117.773 389.055 117.816C390.762 117.859 392.447 117.88 394.111 117.88C395.818 117.88 397.375 117.88 398.783 117.88C401.642 117.88 404.692 117.88 407.935 117.88C411.178 117.837 414.207 117.773 417.023 117.688Z" fill="url(#paint0_linear_58_27)"/>
<path fill-rule="evenodd" clip-rule="evenodd" d="M102.667 0.776978C102.3 1.14298 102 19.593 102 41.777V82.11H106.851H111.703L112.314 73.86C113.602 56.49 119.892 41.695 131.051 29.788C143.108 16.923 155.729 11.304 174.66 10.371L186 9.81299L186.002 27.711C186.003 37.556 186.3 58.098 186.663 73.36L187.322 101.11H191.661H196V50.61V0.109985H149.667C124.183 0.109985 103.033 0.409978 102.667 0.776978ZM205 16.555V33.11H209.5H214V27.61V22.11H219H224V31.61V41.11H220.647C218.802 41.11 214.527 41.399 211.147 41.752L205 42.395V71.807V101.22L209.75 100.915L214.5 100.61V75.935V51.26L217.375 50.685C218.956 50.369 223.109 50.11 226.604 50.11H232.958L233.229 30.36L233.5 10.61L244.5 10.703C263.585 10.864 274.691 15.527 288.056 28.991C294.55 35.532 297.505 39.44 300.314 45.2C304.407 53.593 307.517 65.04 308.51 75.36L309.159 82.11H313.58H318V41.1V0.0899963L270.75 0.349976L223.5 0.609985L223.622 6.85999L223.744 13.11H219.42H215.095L214.798 6.85999L214.5 0.609985L209.75 0.304993L205 0V16.555ZM224 80.11V101.11H228.5H233V80.11V59.11H228.5H224V80.11ZM186.696 178.747C186.313 179.13 186 190.074 186 203.067C186 221.19 185.639 228.077 184.448 232.65C181.356 244.523 173.514 254.321 163.107 259.315C157.499 262.006 154.988 262.57 146.5 263.048L136.5 263.61L136.193 267.86L135.885 272.11H165.943H196V230.11V188.11H200.5H205V230.11V272.11H209.5H214L213.997 225.36L213.994 178.61L200.694 178.33C193.378 178.176 187.08 178.364 186.696 178.747ZM224 225.11V272.11H254.057H284.115L283.807 267.95L283.5 263.79L279 263.467C261.888 262.238 255.495 260.159 247.942 253.368C241.667 247.726 238.742 243.238 235.931 234.939C234.038 229.352 233.723 225.65 233.245 203.36L232.703 178.11H228.352H224V225.11Z" fill="url(#paint1_linear_58_27)"/>
<defs>
<linearGradient id="paint0_linear_58_27" x1="210" y1="179" x2="210" y2="94" gradientUnits="userSpaceOnUse">
<stop stop-color="#ABC7A3"/>
<stop offset="1" stop-color="#90B389"/>
</linearGradient>
<linearGradient id="paint1_linear_58_27" x1="210" y1="272.11" x2="210" y2="0" gradientUnits="userSpaceOnUse">
<stop stop-color="#ABC7A3"/>
<stop offset="1" stop-color="#90B389"/>
</linearGradient>
</defs>
</svg>
