<svg width="51" height="26" viewBox="0 0 51 26" fill="none" xmlns="http://www.w3.org/2000/svg">
<g filter="url(#filter0_d_28_3)">
<path d="M3.07703 22.4614V21.3292C4.19961 21.3098 5.04154 21.2421 5.60283 21.1259C6.18348 20.9905 6.57058 20.7292 6.76413 20.3421C6.95767 19.955 7.05445 19.3743 7.05445 18.6001V3.12594H6.12542C5.2738 3.12594 4.53832 3.32917 3.91896 3.73562C3.29961 4.12272 2.76735 4.76143 2.32219 5.65175C1.87703 6.54207 1.48993 7.71304 1.1609 9.16465H-0.000390612C0.173803 7.9453 0.299609 6.73562 0.377029 5.53562C0.454448 4.33562 0.502835 3.12594 0.52219 1.90659C1.3738 1.92594 2.30284 1.9453 3.30929 1.96465C4.33509 1.98401 5.3609 1.99368 6.38671 1.99368C7.43187 1.99368 8.38993 1.99368 9.2609 1.99368C10.1125 1.99368 11.0512 1.99368 12.077 1.99368C13.1028 1.99368 14.1286 1.98401 15.1544 1.96465C16.1996 1.9453 17.148 1.92594 17.9996 1.90659C18.019 3.12594 18.0674 4.33562 18.1448 5.53562C18.2222 6.73562 18.348 7.9453 18.5222 9.16465H17.3609C17.1093 8.08078 16.8286 7.15175 16.519 6.37756C16.2093 5.60336 15.8512 4.98401 15.4448 4.51949C15.0577 4.03562 14.6125 3.68723 14.1093 3.47433C13.6061 3.24207 13.0254 3.12594 12.3674 3.12594H11.4674V18.6001C11.4674 19.3743 11.5641 19.955 11.7577 20.3421C11.9512 20.7292 12.3286 20.9905 12.8899 21.1259C13.4706 21.2421 14.3222 21.3098 15.4448 21.3292V22.4614C14.7674 22.4421 13.877 22.4227 12.7738 22.4034C11.6899 22.384 10.5383 22.3743 9.31896 22.3743C8.02219 22.3743 6.82219 22.384 5.71896 22.4034C4.61574 22.4227 3.73509 22.4421 3.07703 22.4614ZM18.4142 15.4647V13.1711H29.5916V15.4647H18.4142ZM39.11 22.8679C37.9681 22.8679 37.0004 22.7517 36.2068 22.5195C35.4326 22.2872 34.7939 22.0647 34.2907 21.8517C33.8068 21.6195 33.41 21.5034 33.1004 21.5034C32.8681 21.5034 32.6746 21.6001 32.5197 21.7937C32.3842 21.9872 32.2778 22.2969 32.2004 22.7227H31.0391C31.0778 22.2388 31.0971 21.6679 31.0971 21.0098C31.1165 20.3517 31.1262 19.5195 31.1262 18.513C31.1455 17.4872 31.1552 16.2001 31.1552 14.6517H32.3165C32.5488 16.8969 33.2165 18.6292 34.3197 19.8485C35.4229 21.0485 36.8746 21.6485 38.6746 21.6485C39.8939 21.6485 40.852 21.3582 41.5488 20.7776C42.2455 20.1969 42.5939 19.3937 42.5939 18.3679C42.5939 17.7098 42.4197 17.1195 42.0713 16.5969C41.7423 16.0743 41.2004 15.5905 40.4455 15.1453C39.6907 14.6808 38.6939 14.2163 37.4552 13.7517C36.0229 13.2292 34.852 12.6485 33.9423 12.0098C33.052 11.3711 32.3939 10.655 31.9681 9.86143C31.5423 9.06788 31.3294 8.17756 31.3294 7.19046C31.3294 6.02917 31.6004 5.02272 32.1423 4.1711C32.6842 3.31949 33.4488 2.66143 34.4358 2.19691C35.4229 1.73239 36.5746 1.50014 37.8907 1.50014C38.9552 1.50014 39.8262 1.61627 40.5036 1.84852C41.2004 2.06143 41.7713 2.28401 42.2165 2.51626C42.681 2.74852 43.0681 2.86465 43.3778 2.86465C43.6294 2.86465 43.8229 2.76788 43.9584 2.57433C44.1133 2.38078 44.2294 2.0711 44.3068 1.6453H45.4681C45.4294 2.09046 45.3907 2.58401 45.352 3.12594C45.3326 3.66788 45.3133 4.36465 45.2939 5.21626C45.2939 6.06788 45.2939 7.1711 45.2939 8.52594H44.1326C43.9197 6.76465 43.2907 5.35175 42.2455 4.28723C41.2004 3.22272 39.9036 2.69046 38.3552 2.69046C37.2907 2.69046 36.4584 2.95175 35.8584 3.47433C35.2584 3.99691 34.9584 4.72272 34.9584 5.65175C34.9584 6.2711 35.1229 6.82272 35.452 7.30659C35.8004 7.79046 36.3713 8.26465 37.1649 8.72917C37.9584 9.17433 39.0326 9.6582 40.3875 10.1808C42.5358 10.9743 44.0746 11.9034 45.0036 12.9679C45.952 14.013 46.4262 15.3001 46.4262 16.8292C46.4262 18.6872 45.7681 20.1582 44.452 21.2421C43.1552 22.3259 41.3746 22.8679 39.11 22.8679Z" fill="#90B389"/>
</g>
<defs>
<filter id="filter0_d_28_3" x="0" y="0" width="50.4258" height="25.3677" filterUnits="userSpaceOnUse" color-interpolation-filters="sRGB">
<feFlood flood-opacity="0" result="BackgroundImageFix"/>
<feColorMatrix in="SourceAlpha" type="matrix" values="0 0 0 0 0 0 0 0 0 0 0 0 0 0 0 0 0 0 127 0" result="hardAlpha"/>
<feOffset dx="2" dy="0.5"/>
<feGaussianBlur stdDeviation="1"/>
<feComposite in2="hardAlpha" operator="out"/>
<feColorMatrix type="matrix" values="0 0 0 0 0.564706 0 0 0 0 0.701961 0 0 0 0 0.537255 0 0 0 0.25 0"/>
<feBlend mode="normal" in2="BackgroundImageFix" result="effect1_dropShadow_28_3"/>
<feBlend mode="normal" in="SourceGraphic" in2="effect1_dropShadow_28_3" result="shape"/>
</filter>
</defs>
</svg>
