<svg width="400" height="400" viewBox="0 0 400 400" fill="none" xmlns="http://www.w3.org/2000/svg">
<rect width="400" height="400" rx="90" fill="#0F1512"/>
<g filter="url(#filter0_d_95_17)">
<path d="M205.129 124.506C205.13 99.6211 205.13 75.0967 205.13 50.2861C241.063 50.2861 276.827 50.2861 312.806 50.2861C312.806 73.8981 312.806 97.5533 312.806 121.474C310.741 121.474 308.654 121.474 306.357 121.474C303.68 101.219 295.128 84.2143 277.53 72.7193C262.555 62.9378 245.747 61.3505 228.32 62.1045C228.32 96.1472 228.32 129.906 228.32 163.969C220.678 163.969 213.175 163.969 205.129 163.969C205.129 150.993 205.129 137.93 205.129 124.506Z" fill="url(#paint0_linear_95_17)"/>
<path d="M88.8281 50.1232C114.679 50.0835 140.529 50.0398 166.38 50.0063C176.235 49.9935 186.09 50.0042 196.22 50.0042C196.22 88.0576 196.22 125.966 196.22 164.061C188.374 164.061 180.63 164.061 172.625 164.061C172.625 130.102 172.625 96.2689 172.625 62.4503C132.435 58.5642 100.357 79.1337 94.4658 121.515C92.4038 121.515 90.3073 121.515 88 121.515C88 98.1394 88 74.8427 88.1811 51.0989C88.5368 50.4925 88.692 50.3164 88.8281 50.1232ZM176.835 62.9744C177.097 62.8287 177.359 62.683 177.621 62.5373C177.533 62.4558 177.45 62.3085 177.358 62.3028C176.234 62.2332 175.108 62.1843 173.982 62.1301C173.971 62.3538 173.959 62.5775 173.948 62.8013C174.741 62.8622 175.535 62.9232 176.835 62.9744Z" fill="url(#paint1_linear_95_17)"/>
<path d="M205.143 283.325C205.142 255.089 205.142 227.214 205.142 199.183C213.442 199.183 221.434 199.183 230.177 199.183C230.177 209.338 229.906 219.298 230.232 229.239C230.98 252.084 232.257 274.91 238.203 297.132C239.779 303.019 241.966 308.814 244.512 314.358C253.191 333.254 268.569 342.387 288.892 343.968C290.667 344.107 292.446 344.188 294.381 344.305C294.381 346.205 294.381 347.836 294.381 349.681C269.809 350.714 245.714 350.078 224.76 334.621C217.31 329.127 211.297 322.298 206.044 314.765C205.364 313.79 205.097 312.342 205.091 311.112C205.045 301.97 205.112 292.828 205.143 283.325Z" fill="url(#paint2_linear_95_17)"/>
<path d="M136.816 335.708C147.612 328.375 153.28 317.788 157.392 306.135C162.567 291.468 164.401 276.153 165.177 260.79C165.855 247.366 165.319 233.881 166.145 220.319C166.862 224.18 167.561 228.044 168.298 231.901C172.89 255.908 178.287 279.672 189 301.875C195.329 314.992 202.822 327.355 214.312 336.554C220.714 341.678 228.005 345.69 234.057 349.654C192.558 349.654 149.648 349.654 106.492 349.654C106.492 348.033 106.492 346.319 106.492 344.289C117.241 344.001 127.496 341.907 136.816 335.708Z" fill="url(#paint3_linear_95_17)"/>
<path d="M215.889 191.062C195.337 191.061 175.147 191.061 154.767 191.061C154.767 184.942 154.767 179.083 154.767 172.931C185.01 172.931 215.226 172.931 245.705 172.931C245.705 178.842 245.705 184.67 245.705 191.062C235.857 191.062 226.053 191.062 215.889 191.062Z" fill="url(#paint4_linear_95_17)"/>
<path d="M181.043 253.347C177.398 235.196 173.819 217.336 170.184 199.196C179.131 199.196 187.505 199.196 196.37 199.196C196.37 232.268 196.37 265.355 196.37 298.672C189.754 284.153 184.789 269.122 181.043 253.347Z" fill="url(#paint5_linear_95_17)"/>
<path d="M88.6041 50.1104C88.6942 50.3159 88.5389 50.492 88.2277 50.7627C88.1867 50.6155 88.2824 50.3568 88.6041 50.1104Z" fill="url(#paint6_linear_95_17)"/>
<path d="M176.58 62.9781C175.534 62.922 174.74 62.861 173.946 62.8001C173.958 62.5763 173.969 62.3526 173.981 62.1289C175.106 62.1831 176.232 62.232 177.357 62.3016C177.449 62.3073 177.532 62.4546 177.619 62.5361C177.357 62.6818 177.095 62.8275 176.58 62.9781Z" fill="url(#paint7_linear_95_17)"/>
</g>
<defs>
<filter id="filter0_d_95_17" x="78" y="50" width="244.807" height="320" filterUnits="userSpaceOnUse" color-interpolation-filters="sRGB">
<feFlood flood-opacity="0" result="BackgroundImageFix"/>
<feColorMatrix in="SourceAlpha" type="matrix" values="0 0 0 0 0 0 0 0 0 0 0 0 0 0 0 0 0 0 127 0" result="hardAlpha"/>
<feOffset dy="10"/>
<feGaussianBlur stdDeviation="5"/>
<feComposite in2="hardAlpha" operator="out"/>
<feColorMatrix type="matrix" values="0 0 0 0 0 0 0 0 0 0 0 0 0 0 0 0 0 0 0.15 0"/>
<feBlend mode="normal" in2="BackgroundImageFix" result="effect1_dropShadow_95_17"/>
<feBlend mode="normal" in="SourceGraphic" in2="effect1_dropShadow_95_17" result="shape"/>
</filter>
<linearGradient id="paint0_linear_95_17" x1="258.968" y1="50.2861" x2="258.968" y2="163.969" gradientUnits="userSpaceOnUse">
<stop stop-color="#ABC7A3"/>
<stop offset="1" stop-color="#90B389" stop-opacity="0.4"/>
</linearGradient>
<linearGradient id="paint1_linear_95_17" x1="142.11" y1="50" x2="142.11" y2="164.061" gradientUnits="userSpaceOnUse">
<stop stop-color="#ABC7A3"/>
<stop offset="1" stop-color="#90B389" stop-opacity="0.4"/>
</linearGradient>
<linearGradient id="paint2_linear_95_17" x1="249.728" y1="199.183" x2="249.728" y2="350" gradientUnits="userSpaceOnUse">
<stop stop-color="#ABC7A3"/>
<stop offset="1" stop-color="#90B389" stop-opacity="0.4"/>
</linearGradient>
<linearGradient id="paint3_linear_95_17" x1="170.274" y1="220.319" x2="170.274" y2="349.654" gradientUnits="userSpaceOnUse">
<stop stop-color="#ABC7A3"/>
<stop offset="1" stop-color="#90B389" stop-opacity="0.4"/>
</linearGradient>
<linearGradient id="paint4_linear_95_17" x1="200.236" y1="172.931" x2="200.236" y2="191.062" gradientUnits="userSpaceOnUse">
<stop stop-color="#ABC7A3"/>
<stop offset="1" stop-color="#90B389" stop-opacity="0.4"/>
</linearGradient>
<linearGradient id="paint5_linear_95_17" x1="183.277" y1="199.196" x2="183.277" y2="298.672" gradientUnits="userSpaceOnUse">
<stop stop-color="#ABC7A3"/>
<stop offset="1" stop-color="#90B389" stop-opacity="0.4"/>
</linearGradient>
<linearGradient id="paint6_linear_95_17" x1="88.4241" y1="50.1104" x2="88.4241" y2="50.7627" gradientUnits="userSpaceOnUse">
<stop stop-color="#ABC7A3"/>
<stop offset="1" stop-color="#90B389" stop-opacity="0.4"/>
</linearGradient>
<linearGradient id="paint7_linear_95_17" x1="175.783" y1="62.1289" x2="175.783" y2="62.9781" gradientUnits="userSpaceOnUse">
<stop stop-color="#ABC7A3"/>
<stop offset="1" stop-color="#90B389" stop-opacity="0.4"/>
</linearGradient>
</defs>
</svg>
